<svg width="340" height="340" viewBox="0 0 340 340" fill="none" xmlns="http://www.w3.org/2000/svg">
<mask id="mask0_201_1788" style="mask-type:alpha" maskUnits="userSpaceOnUse" x="0" y="20" width="340" height="308">
<path d="M340 274.3C340 244.7 315.9 220.7 286.3 220.7H215.2V73.7C215.2 44.1 191.2 20 161.5 20H149.3H107.5H95.5H53.7C24 20 0 44 0 73.7V239.2C0 288.2 39.8 328 88.9 328H130.7H142.9H184.4H184.7H196.9H274H286.5C289.2 328 291.9 327.8 294.5 327.4C320.2 323.5 340 301.2 340 274.3Z" fill="white"/>
</mask>
<g mask="url(#mask0_201_1788)">
<path d="M340 274.301C340 244.701 315.9 220.701 286.3 220.701H213.9V244.301C216.6 284.301 248.1 319.401 286.3 328.001C289 328.001 291.7 327.801 294.3 327.401C320.2 323.501 340 301.201 340 274.301Z" fill="url(#paint0_linear_201_1788)"/>
<path d="M53.9 239.101V73.701C53.9 44.001 78 20.001 107.6 20.001H53.7C24 20.001 0 44.001 0 73.701V239.201C0 288.201 39.8 328.001 88.9 328.001H142.8C93.7 328.001 53.9 288.201 53.9 239.101Z" fill="url(#paint1_linear_201_1788)"/>
<g opacity="0.5">
<g filter="url(#filter0_f_201_1788)">
<path d="M95.6998 239.101V73.701C95.6998 44.001 119.7 20.001 149.4 20.001H95.4998C65.7998 20.001 41.7998 44.001 41.7998 73.701V239.201C41.7998 288.301 81.5998 328.101 130.7 328.101H184.6C135.5 328.001 95.6998 288.201 95.6998 239.101Z" fill="#1C1C47"/>
</g>
</g>
<path d="M107.9 239.101V73.701C107.9 44.001 131.9 20.001 161.6 20.001H107.7C78.0004 20.001 53.9004 44.001 53.9004 73.701V239.201C53.9004 288.301 93.7004 328.101 142.8 328.101H196.7C147.7 328.001 107.9 288.201 107.9 239.101Z" fill="url(#paint2_linear_201_1788)"/>
<g opacity="0.3" filter="url(#filter1_f_201_1788)">
<path d="M202.8 244.301V220.701V73.701C202.8 44.101 178.8 20.001 149.1 20.001C119.4 20.001 95.4004 44.001 95.4004 73.701V239.201C95.4004 288.301 135.2 328.101 184.3 328.101H273.9C276.6 328.101 279.3 327.901 281.9 327.501C239.2 322.401 205.7 287.601 202.8 244.301Z" fill="#1C1C47"/>
</g>
<path d="M215.3 244.301V220.701V73.701C215.3 44.101 191.3 20.001 161.6 20.001C131.9 20.001 107.9 44.001 107.9 73.701V239.201C107.9 288.301 147.7 328.101 196.8 328.101H286.4C289.1 328.101 291.8 327.901 294.4 327.501C251.7 322.401 218.1 287.601 215.3 244.301Z" fill="url(#paint3_linear_201_1788)"/>
</g>
<defs>
<filter id="filter0_f_201_1788" x="1.7998" y="-19.999" width="222.8" height="388.1" filterUnits="userSpaceOnUse" color-interpolation-filters="sRGB">
<feFlood flood-opacity="0" result="BackgroundImageFix"/>
<feBlend mode="normal" in="SourceGraphic" in2="BackgroundImageFix" result="shape"/>
<feGaussianBlur stdDeviation="20" result="effect1_foregroundBlur_201_1788"/>
</filter>
<filter id="filter1_f_201_1788" x="55.4004" y="-19.999" width="266.5" height="388.1" filterUnits="userSpaceOnUse" color-interpolation-filters="sRGB">
<feFlood flood-opacity="0" result="BackgroundImageFix"/>
<feBlend mode="normal" in="SourceGraphic" in2="BackgroundImageFix" result="shape"/>
<feGaussianBlur stdDeviation="20" result="effect1_foregroundBlur_201_1788"/>
</filter>
<linearGradient id="paint0_linear_201_1788" x1="290.591" y1="220.331" x2="247.966" y2="322.214" gradientUnits="userSpaceOnUse">
<stop stop-color="#158CE8"/>
<stop offset="0.8965" stop-color="#014492"/>
</linearGradient>
<linearGradient id="paint1_linear_201_1788" x1="71.4325" y1="328.001" x2="71.4325" y2="20.001" gradientUnits="userSpaceOnUse">
<stop stop-color="#084E8E"/>
<stop offset="0.2161" stop-color="#0363BB"/>
<stop offset="1" stop-color="#5E41D3"/>
</linearGradient>
<linearGradient id="paint2_linear_201_1788" x1="125.374" y1="328.001" x2="125.374" y2="20.001" gradientUnits="userSpaceOnUse">
<stop stop-color="#0579D3"/>
<stop offset="0.2089" stop-color="#3982D8"/>
<stop offset="0.9849" stop-color="#9C7DF5"/>
</linearGradient>
<linearGradient id="paint3_linear_201_1788" x1="201.886" y1="341.229" x2="197.698" y2="19.7289" gradientUnits="userSpaceOnUse">
<stop stop-color="#2992DE"/>
<stop offset="0.344" stop-color="#8BAEE9"/>
<stop offset="0.9745" stop-color="#C7B3FE"/>
</linearGradient>
</defs>
</svg>